<svg version="1.1" id="Layer_1" x="0px" y="0px" width="100%" viewBox="0 0 729 736" enable-background="new 0 0 1200 867" xmlns="http://www.w3.org/2000/svg">
  <defs></defs>
  <path fill="#FFD500" opacity="1.000000" stroke="none" d="M 0.099 716.203 C 0.099 651.21 0.138 586.716 0.005 522.223 C -0.004 518.186 1.237 515.52 4.123 512.791 C 53.882 465.734 103.54 418.571 153.231 371.442 C 154.435 370.3 155.768 369.294 157.362 367.955 C 147.77 358.825 138.643 350.114 129.49 341.431 C 87.54 301.638 45.56 261.876 3.709 221.979 C 1.907 220.261 0.253 217.319 0.247 214.943 C 0.064 144.451 0.099 73.958 0.105 3.465 C 0.105 2.5 0.193 1.534 0.271 -0.074 C 1.692 0.9 2.767 1.514 3.703 2.294 C 113.39 93.695 223.058 185.118 332.788 276.467 C 335.954 279.103 337.448 281.69 337.433 286.048 C 337.248 340.708 337.269 395.37 337.404 450.03 C 337.413 453.767 336.242 456.077 333.418 458.403 C 302.736 483.683 272.098 509.016 241.57 534.482 C 162.571 600.382 83.634 666.356 4.668 732.295 C 3.447 733.314 2.164 734.258 0.099 735.872 C 0.099 728.865 0.099 722.784 0.099 716.203 Z"></path>
  <path fill="#FFD500" opacity="1.000000" stroke="none" d="M 704.977 240.931 C 660.396 283.243 616.066 325.307 572.969 366.2 C 581.298 375.254 589.055 384.617 597.768 392.984 C 624.436 418.595 651.486 443.807 678.356 469.207 C 694.078 484.069 709.792 498.941 725.353 513.971 C 726.923 515.488 728.27 518.125 728.275 520.246 C 728.424 591.062 728.398 661.878 728.392 732.695 C 728.392 733.358 728.322 734.021 728.228 735.7 C 723.217 731.72 718.623 728.202 714.17 724.512 C 696.358 709.754 678.558 694.98 660.812 680.143 C 627.866 652.598 594.997 624.961 562.029 597.443 C 506.528 551.117 450.997 504.825 395.381 458.636 C 392.247 456.033 391.084 453.454 391.094 449.405 C 391.233 394.585 391.218 339.764 391.113 284.944 C 391.107 281.619 392.135 279.491 394.666 277.383 C 504.629 185.823 614.537 94.197 724.457 2.585 C 725.445 1.761 726.496 1.014 728.089 -0.206 C 728.219 1.793 728.388 3.182 728.388 4.571 C 728.401 74.554 728.432 144.538 728.264 214.52 C 728.258 216.939 726.808 219.898 725.075 221.672 C 718.677 228.221 711.877 234.378 704.977 240.931 Z"></path>
</svg>
